# xmcd
#
# Track frame offsets:
#	182
#	12920
#	24060
#	35000
#	46502
#	56647
#	72695
#	86645
#	100045
#	112207
#	125417
#	142465
#	153262
#	167662
#
# Disc length: 2420
#
# Revision: 1
# Processed by: cddbd v1.5.1PL0 Copyright (c) Steve Scherf et al.
# Submitted via: VisiTrax 2.9.5.180 - For more info visit www.synapsa.com
# Normalized: r0:DSETVAR1
#
DISCID=bc09720e
DTITLE=Various Artist - Classic Country volume eight
DYEAR=1989
DGENRE=
TTITLE0=Jim Reeves - I can't stop loving you
TTITLE1=Skeeter davis - Take me home country roads
TTITLE2=Hank Locklin - From here to there to you
TTITLE3=Don Gibson - Take these chains from my heart
TTITLE4=Geroge Hamilton IV - Abilene
TTITLE5=Charley Pride - Me and Bobby McGee
TTITLE6=Dolly Parton - Coat of many colors
TTITLE7=Walon Jennings - Amanda
TTITLE8=Eddy Arnold - Wichita lineman
TTITLE9=Hank Snow - I don't hurt anymore
TTITLE10=Bobby Bare - The son of Hickory Hollers tramp
TTITLE11=Floyd Cramer - San Antonio Rose
TTITLE12=Skeeter Davis - My elusive dreams
TTITLE13=Willie Nelson - Have I told you lately that I love you
EXTD=
EXTT0=
EXTT1=
EXTT2=
EXTT3=
EXTT4=
EXTT5=
EXTT6=
EXTT7=
EXTT8=
EXTT9=
EXTT10=
EXTT11=
EXTT12=
EXTT13=
PLAYORDER=
